<svg host="65bd71144e" xmlns="http://www.w3.org/2000/svg" xmlns:xlink="http://www.w3.org/1999/xlink" version="1.1" width="572px" height="452px" viewBox="-0.5 -0.5 572 452" content="&lt;mxfile pages=&quot;13&quot; scale=&quot;1&quot; border=&quot;5&quot;&gt;&lt;diagram id=&quot;qDvi9SR4g9OhX8aJP13M&quot; name=&quot;iam&quot;&gt;7Vrfc5s4EP5rPNN7cAaQAfPoOE7am9610zz0MSODjNXIiBPyj/SvPwkkAxI4bmM3bcbEE6OVWEn77X6sdjwA09XujsF8+Q9NEBl4TrIbgJuB57mB54gvKXnSEsetJCnDiZLVgnv8HSmhejBd4wQVrYGcUsJx3hbGNMtQzFsyyBjdtoctKGnPmsNUzejUgvsYEmQN+4oTvqykYy+s5e8RTpd6ZjeIqp45jB9TRteZmm/ggdvyqrpXUOtS8xZLmNBtQwRmAzBllPLqbrWbIiKNq81WPXfb07tfN0MZP+YB9Olvd7u4K6792b9s9f3T8P39bKi0bCBZK3tMvt4LwSSOxc64Wjl/0tbKKc54aXH/WnzEjFNn4IueqWxdeb4hMNthW+DaLamjLTDbYVvgmupdY37XXGBDYLVa6h1jfqexQPEB13TNCc7QdO+bjhCmDCZYgDKlhDIhy2gmrHe95CsiWq643S4xR/c5jKVVtyKwhGxBM66iw/V0WxleahX+z6GYiykdJRKIzTaoAqQaQwjMCzzfP8VQvGYF3qAvqKiUS6lwxVzer3apjOoruC1GV9KX83L5H8Rcnb0PULmFUMEZfUR6i8L3pzeeF4zkwjEhxtY3iHEsQm5CcCo1cyongqpF0KLUKOyBs/Rj2boBjrJB1xQJLJYo0ZspV6JjV5rOjgzt5mIdaNcQqUi5Q3SFOHsSQ1Tv0Ndhq3ht6GrBtmYJP1CyZYMhRiMlhIqZ0r32OjrFjQrQHwhWvYJGtOaMfhOeN4TJCmeFFa4dWPQDt7eq2wuZ6ZR9ANmYNN0b9IL/RZnRqUXtlvKOsBPlgwx3NPSjNvAgsmAfjTtgd4OzwW6T9MALCFdWLd+NGoLgv7V8nwjjAKe8mqIgVd9EmTxreYseGAuT8qHSORFDWDp/J6lP3OqvvypFhmrljdII0h+xcAPIKSv0lGL71aztlQhxtREtNry4eEQ8XipH6KRcww8X5dXl7I4TzCa3BksJuTuHLvJMatFB8BHOEflMC8xxyYxzyjldPUtsMZIM3ab+52geFnm1rQXeyXV0c7VY/Lo0rljPw7pAwsT2G8E9khxPEzbjdtiEdth0Rc34bEHjWW5U5mp7bCnjS5rSTKBLJWqlub4hzp8UPHDNaRu7tjFNNIHth1HkOFH0w0Yv6JrF6AhG4JCl6JBCme7IgSjRSXAPiAwR4Uybdk7cBYp69LP0tRp8z2+j77rjq9AZhZH+F7U1VjtUSgyk96t6Afjg8Ivy5Qwj/m7lgvqSPYNerm+dsRtYhKQGvzbndBJHF+0wStAvJRVgZGHRcaxyvgxsZLmODC1tTIXnGyIa/1iiAacmmpfh5HekTJeYP5RnHE0CBS8eIBFDM8h/LRuU6efhHCPwbDYIx+fysuB5L2vSQ80Es1p6KrZoHsOmZeZvQgPOwA/hq/FD+eiEMfjUGKDKU715Cgg6Pah2gkrhaZORsPf4NjcOTjo7Ub1s343YCheFIIXC7pxL/4HSKGZP43w1P93h6kKDJQ02MTljMQL4LYf17SLUyL8Crs16fngu1hv3JtcJ2iBCc3kcvVSiTl6J+h1KUVEvl/22paimU17KUD/Li39oGerV61DAsfzoDR0PoyPTP3Ce9O/ZOhQw6lB+W+GZy1DALtxbb8pLPvaHlqJevRYFDh8231wtSnPI82TjnppsXoaTXYy+BP2bq0WdsRglmvWvhKp3U/1bLDD7Hw==&lt;/diagram&gt;&lt;/mxfile&gt;" style="background-color: rgb(255, 255, 255);">
    <defs/>
    <g>
        <path d="M 6 6 L 566 6 L 566 446 L 6 446 Z" fill="none" stroke="#cd2264" stroke-width="2" stroke-miterlimit="10" pointer-events="none"/>
        <path d="M 6 6 L 6 31 L 31 31 L 31 6 L 6 6 Z M 10.09 9.69 L 26.91 9.69 C 27.01 9.69 27.12 9.73 27.19 9.81 C 27.27 9.88 27.31 9.99 27.31 10.09 L 27.31 26.91 C 27.31 27.01 27.27 27.12 27.19 27.19 C 27.12 27.27 27.01 27.31 26.91 27.31 L 10.09 27.31 C 9.99 27.31 9.88 27.27 9.81 27.19 C 9.73 27.12 9.69 27.01 9.69 26.91 L 9.69 10.09 C 9.69 9.99 9.73 9.88 9.81 9.81 C 9.88 9.73 9.99 9.69 10.09 9.69 Z M 10.49 10.49 L 10.49 26.51 L 26.51 26.51 L 26.51 10.49 L 10.49 10.49 Z M 22.5 11.31 C 22.65 11.31 22.79 11.38 22.86 11.52 L 25.46 16.72 C 25.53 16.84 25.52 16.99 25.45 17.11 C 25.37 17.23 25.25 17.3 25.11 17.3 L 19.9 17.3 L 19.9 17.3 C 19.76 17.3 19.63 17.23 19.56 17.11 C 19.49 16.99 19.48 16.84 19.54 16.72 L 22.14 11.52 C 22.21 11.38 22.36 11.31 22.5 11.31 Z M 22.5 12.59 L 20.55 16.5 L 24.46 16.5 L 22.5 12.59 Z M 12.09 15.3 L 17.3 15.3 C 17.41 15.3 17.51 15.34 17.58 15.41 C 17.66 15.49 17.7 15.59 17.7 15.7 L 17.7 20.9 C 17.7 21.01 17.66 21.11 17.58 21.19 C 17.51 21.26 17.41 21.3 17.3 21.3 L 12.09 21.3 C 11.99 21.3 11.89 21.26 11.81 21.19 C 11.74 21.11 11.69 21.01 11.69 20.9 L 11.69 15.7 C 11.69 15.59 11.74 15.49 11.81 15.41 C 11.89 15.34 11.99 15.3 12.09 15.3 Z M 12.49 16.1 L 12.49 20.5 L 16.9 20.5 L 16.9 16.1 L 12.49 16.1 Z M 21.7 19.3 C 23.47 19.3 24.9 20.74 24.91 22.5 C 24.9 24.27 23.47 25.7 21.7 25.71 C 19.94 25.7 18.5 24.27 18.5 22.5 C 18.5 20.74 19.94 19.3 21.7 19.3 Z M 21.7 20.1 C 20.38 20.1 19.3 21.18 19.3 22.5 C 19.3 23.83 20.38 24.9 21.7 24.91 C 23.03 24.9 24.1 23.83 24.1 22.5 C 24.1 21.18 23.03 20.1 21.7 20.1 Z" fill="#cd2264" stroke="none" pointer-events="all"/>
        <g transform="translate(-0.5 -0.5)">
            <switch>
                <foreignObject pointer-events="none" width="100%" height="100%" requiredFeatures="http://www.w3.org/TR/SVG11/feature#Extensibility" style="overflow: visible; text-align: left;">
                    <div xmlns="http://www.w3.org/1999/xhtml" style="display: flex; align-items: unsafe flex-start; justify-content: unsafe flex-start; width: 528px; height: 1px; padding-top: 13px; margin-left: 38px;">
                        <div data-drawio-colors="color: #CD2264; " style="box-sizing: border-box; font-size: 0px; text-align: left;">
                            <div style="display: inline-block; font-size: 12px; font-family: Helvetica; color: rgb(205, 34, 100); line-height: 1.2; pointer-events: all; white-space: normal; overflow-wrap: normal;">
                                AWS Account
                            </div>
                        </div>
                    </div>
                </foreignObject>
                <text x="38" y="25" fill="#CD2264" font-family="Helvetica" font-size="12px">
                    AWS Account
                </text>
            </switch>
        </g>
        <rect x="46" y="45" width="480" height="160" fill="none" stroke="#cd2264" stroke-width="2" stroke-dasharray="6 6" pointer-events="all"/>
        <g fill="#CD2264" font-family="Helvetica" font-size="13px">
            <text x="52.5" y="61.5">
                project-admins
            </text>
        </g>
        <rect x="86" y="85" width="80" height="80" fill="none" stroke="none" pointer-events="all"/>
        <path d="M 145.49 86.84 C 140.63 86.84 136.71 90.76 136.71 95.62 C 136.71 100.47 140.63 104.39 145.49 104.39 C 150.34 104.39 154.26 100.47 154.26 95.62 C 154.26 90.76 150.34 86.84 145.49 86.84 Z M 143.98 124.09 L 164.04 124.09 C 163.96 118.58 163.2 115.77 160.15 111.23 C 158.03 108.47 154.15 106.02 150.29 104.94 C 148.83 105.7 147.24 106.23 145.49 106.23 C 143.72 106.23 142.12 105.69 140.65 104.92 L 140.65 104.92 C 138.54 105.47 136.64 106.33 134.95 107.45 L 133.92 105.98 C 135.39 105.02 137.01 104.23 138.76 103.64 C 136.43 101.69 134.87 98.88 134.87 95.62 C 134.87 89.76 139.63 85 145.49 85 L 145.49 85 C 151.34 85 156.1 89.76 156.1 95.62 C 156.1 98.88 154.53 101.69 152.21 103.64 C 155.95 104.97 159.47 107.29 161.64 110.13 C 161.65 110.14 161.66 110.16 161.67 110.17 C 165.04 115.18 165.92 118.63 165.92 125.01 C 165.92 125.52 165.51 125.93 165 125.93 L 143.98 125.94 Z M 106.51 86.84 C 111.37 86.84 115.29 90.76 115.29 95.62 C 115.29 100.47 111.37 104.39 106.51 104.39 C 101.66 104.39 97.74 100.47 97.74 95.62 C 97.74 90.76 101.66 86.84 106.51 86.84 Z M 108.02 124.09 L 87.96 124.09 C 88.04 118.58 88.8 115.77 91.84 111.23 C 93.97 108.47 97.85 106.02 101.71 104.94 C 103.17 105.7 104.76 106.23 106.51 106.23 C 108.28 106.23 109.88 105.69 111.35 104.92 L 111.35 104.92 C 113.46 105.47 115.36 106.33 117.05 107.45 L 118.08 105.98 C 116.61 105.02 114.99 104.23 113.24 103.64 C 115.57 101.69 117.13 98.88 117.13 95.62 C 117.13 89.76 112.37 85 106.51 85 L 106.51 85 C 100.66 85 95.9 89.76 95.9 95.62 C 95.9 98.88 97.47 101.69 99.79 103.64 C 96.05 104.97 92.53 107.29 90.36 110.13 C 90.35 110.14 90.34 110.16 90.33 110.17 C 86.96 115.18 86.08 118.63 86.08 125.01 C 86.08 125.52 86.49 125.93 87 125.93 L 108.02 125.94 Z M 125.85 107.52 C 117.72 107.52 111.1 114.14 111.1 122.28 C 111.1 126.98 113.35 131.13 116.79 133.83 C 111.4 135.67 106.28 139 103.18 143.05 C 103.17 143.07 103.16 143.08 103.14 143.1 C 98.39 150.18 97.16 154.96 97.16 163.98 C 97.16 164.53 97.61 164.98 98.16 164.98 L 153.74 165 C 154.3 165 154.75 164.55 154.75 164 C 154.75 157.75 154.23 151.2 150.01 144.84 C 150 144.83 149.99 144.82 149.99 144.82 C 146.41 139.77 141.27 135.88 134.93 133.82 C 138.36 131.12 140.61 126.97 140.61 122.28 C 140.61 114.14 133.99 107.52 125.85 107.52 Z M 125.85 109.52 C 132.91 109.52 138.6 115.22 138.6 122.28 C 138.6 129.33 132.91 135.03 125.85 135.03 C 123.43 135.03 121.19 134.32 119.26 133.15 L 119.23 133.01 C 119.18 133.02 119.14 133.04 119.09 133.05 C 115.5 130.8 113.1 126.84 113.1 122.28 C 113.1 115.22 118.8 109.52 125.85 109.52 Z M 132.83 135.2 C 139.47 136.94 144.71 140.84 148.35 145.96 C 152.04 151.54 152.65 157.21 152.71 163 L 99.2 162.98 C 99.29 154.9 100.38 150.82 104.79 144.25 C 107.84 140.27 113.39 136.77 118.92 135.22 C 121 136.34 123.33 137.03 125.85 137.03 C 128.39 137.03 130.74 136.33 132.83 135.2 Z" fill="#1ba1e2" stroke="none" pointer-events="all"/>
        <g transform="translate(-0.5 -0.5)">
            <switch>
                <foreignObject pointer-events="none" width="100%" height="100%" requiredFeatures="http://www.w3.org/TR/SVG11/feature#Extensibility" style="overflow: visible; text-align: left;">
                    <div xmlns="http://www.w3.org/1999/xhtml" style="display: flex; align-items: unsafe flex-start; justify-content: unsafe center; width: 1px; height: 1px; padding-top: 172px; margin-left: 126px;">
                        <div data-drawio-colors="color: #ffffff; " style="box-sizing: border-box; font-size: 0px; text-align: center;">
                            <div style="display: inline-block; font-size: 12px; font-family: Helvetica; color: rgb(255, 255, 255); line-height: 1.2; pointer-events: all; white-space: nowrap;">
                                <font color="#000000">
                                    <span style="caret-color: rgb(0, 0, 0);">
                                        project administrators
                                    </span>
                                </font>
                            </div>
                        </div>
                    </div>
                </foreignObject>
                <text x="126" y="184" fill="#ffffff" font-family="Helvetica" font-size="12px" text-anchor="middle">
                    project admin...
                </text>
            </switch>
        </g>
        <path d="M 165.92 124.64 L 199.63 124.34" fill="none" stroke="rgb(0, 0, 0)" stroke-miterlimit="10" pointer-events="stroke"/>
        <path d="M 204.88 124.29 L 197.91 127.85 L 199.63 124.34 L 197.85 120.85 Z" fill="rgb(0, 0, 0)" stroke="rgb(0, 0, 0)" stroke-miterlimit="10" pointer-events="all"/>
        <rect x="326" y="105" width="80" height="40" fill="none" stroke="none" pointer-events="all"/>
        <path d="M 399.86 131.44 C 399.64 131.24 399.37 131.09 399.08 130.97 C 397.43 116.31 384.94 105 370.04 105 C 363.32 105 356.76 107.34 351.57 111.57 C 344.71 117.15 340.78 125.42 340.78 134.26 C 340.78 134.32 340.79 134.39 340.79 134.45 C 339.74 134.98 338.63 135.48 337.52 135.97 C 334.16 137.44 331.73 138.5 331.37 140.42 C 331.28 140.9 331.26 141.86 332.19 142.78 C 333.82 144.41 336.95 145 340.14 145 C 341.46 145 342.79 144.9 344.03 144.73 C 346.14 144.44 350.08 143.67 352.75 141.71 C 356.97 138.66 366.5 137.51 371.46 137.9 C 374.42 138.13 378.01 139.68 380.89 140.93 C 383.09 141.89 384.83 142.64 386.19 142.83 C 388.06 143.09 391.13 142.78 394.37 142.44 L 394.64 142.42 C 395.49 142.32 396.32 142.25 397.15 142.18 C 397.49 142.15 397.82 142.12 398.27 142.09 C 399.66 141.99 400.74 140.83 400.74 139.44 L 400.74 133.42 C 400.74 132.66 400.42 131.94 399.86 131.44 Z M 370.04 108.15 C 383.22 108.15 394.28 118.06 395.91 130.97 C 395.46 131.01 394.98 131.06 394.47 131.1 L 394.18 131.13 C 394.15 129.68 392.96 128.52 391.51 128.52 L 390.39 128.52 C 386.92 118.32 376.88 111.29 365.52 111.29 C 361.31 111.29 357.19 112.25 353.48 114.08 C 353.51 114.06 353.53 114.04 353.56 114.01 C 358.19 110.23 364.04 108.15 370.04 108.15 Z M 386.23 133.82 L 386.23 131.66 L 391.04 131.66 L 391.04 133.82 Z M 343.61 141.61 C 339.43 142.18 336.14 141.67 334.78 140.83 C 335.6 140.24 337.47 139.43 338.78 138.85 C 339.92 138.36 341.07 137.83 342.18 137.27 C 344 138.66 346.25 139.69 348.74 140.31 C 347.3 140.89 345.52 141.35 343.61 141.61 Z M 397.59 138.98 C 397.35 139 397.1 139.02 396.86 139.04 C 396.04 139.11 395.18 139.19 394.31 139.28 L 394.05 139.31 C 391.27 139.6 388.12 139.92 386.63 139.72 C 385.69 139.58 383.97 138.83 382.14 138.04 C 379.04 136.7 375.19 135.03 371.71 134.76 C 366.91 134.39 358.62 135.3 353.28 137.8 C 350.19 137.66 347.32 136.83 345.1 135.46 C 345.09 135.03 345.08 134.6 345.08 134.44 C 345.08 127.92 348.13 121.82 353.45 117.67 C 357.07 115.55 361.24 114.44 365.52 114.44 C 375.15 114.44 383.71 120.13 387.04 128.52 L 385.76 128.52 C 384.48 128.52 383.41 129.42 383.15 130.63 C 382.93 130.54 382.73 130.47 382.5 130.38 C 379.3 129.15 374.92 127.46 369.85 127.76 C 362.44 128.2 358.8 128.64 355.93 129.46 L 356.79 132.49 C 359.42 131.74 362.88 131.33 370.03 130.9 C 374.42 130.66 378.44 132.19 381.36 133.32 C 381.98 133.56 382.55 133.77 383.08 133.96 L 383.08 134.28 C 383.08 135.76 384.29 136.96 385.76 136.96 L 391.51 136.96 C 392.98 136.96 394.18 135.76 394.19 134.29 L 394.75 134.24 C 395.68 134.16 396.54 134.07 397.26 134 L 397.59 133.97 Z" fill="#bf0816" stroke="none" pointer-events="all"/>
        <g transform="translate(-0.5 -0.5)">
            <switch>
                <foreignObject pointer-events="none" width="100%" height="100%" requiredFeatures="http://www.w3.org/TR/SVG11/feature#Extensibility" style="overflow: visible; text-align: left;">
                    <div xmlns="http://www.w3.org/1999/xhtml" style="display: flex; align-items: unsafe flex-start; justify-content: unsafe center; width: 1px; height: 1px; padding-top: 152px; margin-left: 366px;">
                        <div data-drawio-colors="color: #232F3E; " style="box-sizing: border-box; font-size: 0px; text-align: center;">
                            <div style="display: inline-block; font-size: 12px; font-family: Helvetica; color: rgb(35, 47, 62); line-height: 1.2; pointer-events: all; white-space: nowrap;">
                                project-admin
                            </div>
                        </div>
                    </div>
                </foreignObject>
                <text x="366" y="164" fill="#232F3E" font-family="Helvetica" font-size="12px" text-anchor="middle">
                    project-admin
                </text>
            </switch>
        </g>
        <path d="M 268 124.24 L 324.89 124.68" fill="none" stroke="rgb(0, 0, 0)" stroke-miterlimit="10" pointer-events="stroke"/>
        <path d="M 330.14 124.72 L 323.12 128.17 L 324.89 124.68 L 323.17 121.17 Z" fill="rgb(0, 0, 0)" stroke="rgb(0, 0, 0)" stroke-miterlimit="10" pointer-events="all"/>
        <rect x="206" y="85" width="62" height="78" fill="none" stroke="none" pointer-events="all"/>
        <path d="M 238.76 111.91 L 227.77 111.91 L 227.77 108.39 L 235.24 108.39 L 235.24 97.84 L 238.76 97.84 Z M 237 94.99 C 244.51 94.99 250.63 101.1 250.63 108.61 C 250.63 116.12 244.51 122.24 237 122.24 C 229.49 122.24 223.38 116.12 223.38 108.61 C 223.38 101.1 229.49 94.99 237 94.99 Z M 237 125.76 C 246.46 125.76 254.15 118.07 254.15 108.61 C 254.15 99.16 246.46 91.46 237 91.46 C 227.54 91.46 219.85 99.16 219.85 108.61 C 219.85 118.07 227.54 125.76 237 125.76 Z M 255.09 146.72 C 255.6 147.33 255.86 148.12 255.86 149.08 C 255.86 150.46 255.36 151.55 254.38 152.37 C 253.4 153.19 252.07 153.6 250.41 153.6 C 248.75 153.6 247.32 153.31 246.1 152.72 L 246.1 151 C 247.61 151.5 249.03 151.75 250.36 151.75 C 251.38 151.75 252.18 151.53 252.76 151.08 C 253.35 150.64 253.64 150.03 253.64 149.27 C 253.64 148.74 253.47 148.3 253.13 147.95 C 252.79 147.59 252.22 147.26 251.42 146.95 L 249.33 146.15 C 248.15 145.7 247.3 145.17 246.76 144.53 C 246.23 143.9 245.97 143.1 245.97 142.14 C 245.97 141.34 246.17 140.62 246.57 140 C 246.97 139.37 247.55 138.88 248.31 138.52 C 249.06 138.17 249.95 137.98 250.97 137.98 C 252.26 137.98 253.59 138.24 254.95 138.76 L 254.95 140.51 C 253.5 140.06 252.22 139.84 251.12 139.84 C 250.18 139.84 249.46 140.03 248.95 140.41 C 248.44 140.79 248.19 141.33 248.19 142.03 C 248.19 142.61 248.36 143.06 248.7 143.4 C 249.05 143.74 249.69 144.08 250.62 144.42 L 252.58 145.16 C 253.74 145.59 254.58 146.11 255.09 146.72 Z M 232.67 138.31 L 244.39 138.31 L 244.39 140.12 L 239.63 140.12 L 239.63 153.24 L 237.44 153.24 L 237.44 140.12 L 232.67 140.12 Z M 230.45 146.72 C 230.96 147.33 231.21 148.12 231.21 149.08 C 231.21 150.46 230.72 151.55 229.74 152.37 C 228.75 153.19 227.43 153.6 225.76 153.6 C 224.11 153.6 222.67 153.31 221.45 152.72 L 221.45 151 C 222.96 151.5 224.38 151.75 225.72 151.75 C 226.74 151.75 227.54 151.53 228.12 151.08 C 228.7 150.64 228.99 150.03 228.99 149.27 C 228.99 148.74 228.82 148.3 228.49 147.95 C 228.15 147.59 227.58 147.26 226.77 146.95 L 224.68 146.15 C 223.51 145.7 222.65 145.17 222.12 144.53 C 221.59 143.9 221.32 143.1 221.32 142.14 C 221.32 141.34 221.52 140.62 221.92 140 C 222.33 139.37 222.91 138.88 223.66 138.52 C 224.41 138.17 225.3 137.98 226.32 137.98 C 227.61 137.98 228.94 138.24 230.31 138.76 L 230.31 140.51 C 228.86 140.06 227.58 139.84 226.47 139.84 C 225.54 139.84 224.82 140.03 224.31 140.41 C 223.8 140.79 223.54 141.33 223.54 142.03 C 223.54 142.61 223.71 143.06 224.06 143.4 C 224.4 143.74 225.04 144.08 225.98 144.42 L 227.94 145.16 C 229.1 145.59 229.93 146.11 230.45 146.72 Z M 264.47 157.75 C 264.47 158.53 263.84 159.17 263.05 159.17 L 210.95 159.17 C 210.16 159.17 209.53 158.53 209.53 157.75 L 209.53 90.25 C 209.53 89.47 210.16 88.83 210.95 88.83 L 263.05 88.83 C 263.84 88.83 264.47 89.47 264.47 90.25 Z M 263.05 85.31 L 210.95 85.31 C 208.22 85.31 206 87.53 206 90.25 L 206 157.75 C 206 160.47 208.22 162.69 210.95 162.69 L 263.05 162.69 C 265.78 162.69 268 160.47 268 157.75 L 268 90.25 C 268 87.53 265.78 85.31 263.05 85.31 Z" fill="#bf0816" stroke="none" pointer-events="all"/>
        <path d="M 441 84.5 L 366 84.5 L 366 94.9" fill="none" stroke="#cc0000" stroke-width="3" stroke-miterlimit="10" pointer-events="stroke"/>
        <path d="M 366 101.65 L 361.5 92.65 L 366 94.9 L 370.5 92.65 Z" fill="#cc0000" stroke="#cc0000" stroke-width="3" stroke-miterlimit="10" pointer-events="all"/>
        <rect x="441" y="56" width="45.31" height="57" fill="none" stroke="none" pointer-events="all"/>
        <path d="M 459.37 76.84 L 461.19 78.66 L 452.19 87.66 C 451.94 87.91 451.61 88.03 451.28 88.03 C 450.95 88.03 450.63 87.91 450.37 87.66 L 445.88 83.16 L 447.69 81.34 L 451.28 84.93 Z M 459.37 62.22 L 461.19 64.04 L 452.19 73.04 C 451.94 73.29 451.61 73.41 451.28 73.41 C 450.95 73.41 450.63 73.29 450.37 73.04 L 445.88 68.54 L 447.69 66.72 L 451.28 70.31 Z M 458.94 95.53 L 454.79 99.68 L 458.94 103.84 L 457.12 105.65 L 452.97 101.5 L 448.82 105.65 L 447 103.84 L 451.15 99.68 L 447 95.53 L 448.82 93.71 L 452.97 97.87 L 457.12 93.71 Z M 483.74 109.17 C 483.74 109.74 483.27 110.21 482.7 110.21 L 444.61 110.21 C 444.04 110.21 443.57 109.74 443.57 109.17 L 443.57 59.83 C 443.57 59.26 444.04 58.79 444.61 58.79 L 482.7 58.79 C 483.27 58.79 483.74 59.26 483.74 59.83 Z M 482.7 56.22 L 444.61 56.22 C 442.62 56.22 441 57.84 441 59.83 L 441 109.17 C 441 111.16 442.62 112.78 444.61 112.78 L 482.7 112.78 C 484.69 112.78 486.31 111.16 486.31 109.17 L 486.31 59.83 C 486.31 57.84 484.69 56.22 482.7 56.22 Z" fill="#bf0816" stroke="none" pointer-events="all"/>
        <g transform="translate(-0.5 -0.5)">
            <switch>
                <foreignObject pointer-events="none" width="100%" height="100%" requiredFeatures="http://www.w3.org/TR/SVG11/feature#Extensibility" style="overflow: visible; text-align: left;">
                    <div xmlns="http://www.w3.org/1999/xhtml" style="display: flex; align-items: unsafe flex-start; justify-content: unsafe center; width: 1px; height: 1px; padding-top: 120px; margin-left: 464px;">
                        <div data-drawio-colors="color: #232F3E; " style="box-sizing: border-box; font-size: 0px; text-align: center;">
                            <div style="display: inline-block; font-size: 12px; font-family: Helvetica; color: rgb(35, 47, 62); line-height: 1.2; pointer-events: all; white-space: nowrap;">
                                <b>
                                    project-admin
                                    <br/>
                                    permissions
                                    <br/>
                                    boundary
                                    <br/>
                                </b>
                            </div>
                        </div>
                    </div>
                </foreignObject>
                <text x="464" y="132" fill="#232F3E" font-family="Helvetica" font-size="12px" text-anchor="middle">
                    project...
                </text>
            </switch>
        </g>
        <rect x="46" y="245" width="480" height="160" fill="none" stroke="#cd2264" stroke-width="2" stroke-dasharray="6 6" pointer-events="all"/>
        <g fill="#CD2264" font-family="Helvetica" font-size="13px">
            <text x="52.5" y="261.5">
                project-developers
            </text>
        </g>
        <rect x="86" y="285" width="80" height="80" fill="none" stroke="none" pointer-events="all"/>
        <path d="M 145.49 286.84 C 140.63 286.84 136.71 290.76 136.71 295.62 C 136.71 300.47 140.63 304.39 145.49 304.39 C 150.34 304.39 154.26 300.47 154.26 295.62 C 154.26 290.76 150.34 286.84 145.49 286.84 Z M 143.98 324.09 L 164.04 324.09 C 163.96 318.58 163.2 315.77 160.15 311.23 C 158.03 308.47 154.15 306.02 150.29 304.94 C 148.83 305.7 147.24 306.23 145.49 306.23 C 143.72 306.23 142.12 305.69 140.65 304.92 L 140.65 304.92 C 138.54 305.47 136.64 306.33 134.95 307.45 L 133.92 305.98 C 135.39 305.02 137.01 304.23 138.76 303.64 C 136.43 301.69 134.87 298.88 134.87 295.62 C 134.87 289.76 139.63 285 145.49 285 L 145.49 285 C 151.34 285 156.1 289.76 156.1 295.62 C 156.1 298.88 154.53 301.69 152.21 303.64 C 155.95 304.97 159.47 307.29 161.64 310.13 C 161.65 310.14 161.66 310.16 161.67 310.17 C 165.04 315.18 165.92 318.63 165.92 325.01 C 165.92 325.52 165.51 325.93 165 325.93 L 143.98 325.94 Z M 106.51 286.84 C 111.37 286.84 115.29 290.76 115.29 295.62 C 115.29 300.47 111.37 304.39 106.51 304.39 C 101.66 304.39 97.74 300.47 97.74 295.62 C 97.74 290.76 101.66 286.84 106.51 286.84 Z M 108.02 324.09 L 87.96 324.09 C 88.04 318.58 88.8 315.77 91.84 311.23 C 93.97 308.47 97.85 306.02 101.71 304.94 C 103.17 305.7 104.76 306.23 106.51 306.23 C 108.28 306.23 109.88 305.69 111.35 304.92 L 111.35 304.92 C 113.46 305.47 115.36 306.33 117.05 307.45 L 118.08 305.98 C 116.61 305.02 114.99 304.23 113.24 303.64 C 115.57 301.69 117.13 298.88 117.13 295.62 C 117.13 289.76 112.37 285 106.51 285 L 106.51 285 C 100.66 285 95.9 289.76 95.9 295.62 C 95.9 298.88 97.47 301.69 99.79 303.64 C 96.05 304.97 92.53 307.29 90.36 310.13 C 90.35 310.14 90.34 310.16 90.33 310.17 C 86.96 315.18 86.08 318.63 86.08 325.01 C 86.08 325.52 86.49 325.93 87 325.93 L 108.02 325.94 Z M 125.85 307.52 C 117.72 307.52 111.1 314.14 111.1 322.28 C 111.1 326.98 113.35 331.13 116.79 333.83 C 111.4 335.67 106.28 339 103.18 343.05 C 103.17 343.07 103.16 343.08 103.14 343.1 C 98.39 350.18 97.16 354.96 97.16 363.98 C 97.16 364.53 97.61 364.98 98.16 364.98 L 153.74 365 C 154.3 365 154.75 364.55 154.75 364 C 154.75 357.75 154.23 351.2 150.01 344.84 C 150 344.83 149.99 344.82 149.99 344.82 C 146.41 339.77 141.27 335.88 134.93 333.82 C 138.36 331.12 140.61 326.97 140.61 322.28 C 140.61 314.14 133.99 307.52 125.85 307.52 Z M 125.85 309.52 C 132.91 309.52 138.6 315.22 138.6 322.28 C 138.6 329.33 132.91 335.03 125.85 335.03 C 123.43 335.03 121.19 334.32 119.26 333.15 L 119.23 333.01 C 119.18 333.02 119.14 333.04 119.09 333.05 C 115.5 330.8 113.1 326.84 113.1 322.28 C 113.1 315.22 118.8 309.52 125.85 309.52 Z M 132.83 335.2 C 139.47 336.94 144.71 340.84 148.35 345.96 C 152.04 351.54 152.65 357.21 152.71 363 L 99.2 362.98 C 99.29 354.9 100.38 350.82 104.79 344.25 C 107.84 340.27 113.39 336.77 118.92 335.22 C 121 336.34 123.33 337.03 125.85 337.03 C 128.39 337.03 130.74 336.33 132.83 335.2 Z" fill="#1ba1e2" stroke="none" pointer-events="all"/>
        <g transform="translate(-0.5 -0.5)">
            <switch>
                <foreignObject pointer-events="none" width="100%" height="100%" requiredFeatures="http://www.w3.org/TR/SVG11/feature#Extensibility" style="overflow: visible; text-align: left;">
                    <div xmlns="http://www.w3.org/1999/xhtml" style="display: flex; align-items: unsafe flex-start; justify-content: unsafe center; width: 1px; height: 1px; padding-top: 372px; margin-left: 126px;">
                        <div data-drawio-colors="color: #ffffff; " style="box-sizing: border-box; font-size: 0px; text-align: center;">
                            <div style="display: inline-block; font-size: 12px; font-family: Helvetica; color: rgb(255, 255, 255); line-height: 1.2; pointer-events: all; white-space: nowrap;">
                                <font color="#000000">
                                    <span style="caret-color: rgb(0, 0, 0);">
                                        project developers
                                    </span>
                                </font>
                            </div>
                        </div>
                    </div>
                </foreignObject>
                <text x="126" y="384" fill="#ffffff" font-family="Helvetica" font-size="12px" text-anchor="middle">
                    project devel...
                </text>
            </switch>
        </g>
        <path d="M 165.92 324.64 L 199.63 324.34" fill="none" stroke="rgb(0, 0, 0)" stroke-miterlimit="10" pointer-events="stroke"/>
        <path d="M 204.88 324.29 L 197.91 327.85 L 199.63 324.34 L 197.85 320.85 Z" fill="rgb(0, 0, 0)" stroke="rgb(0, 0, 0)" stroke-miterlimit="10" pointer-events="all"/>
        <rect x="326" y="305" width="80" height="40" fill="none" stroke="none" pointer-events="all"/>
        <path d="M 399.86 331.44 C 399.64 331.24 399.37 331.09 399.08 330.97 C 397.43 316.31 384.94 305 370.04 305 C 363.32 305 356.76 307.34 351.57 311.57 C 344.71 317.15 340.78 325.42 340.78 334.26 C 340.78 334.32 340.79 334.39 340.79 334.45 C 339.74 334.98 338.63 335.48 337.52 335.97 C 334.16 337.44 331.73 338.5 331.37 340.42 C 331.28 340.9 331.26 341.86 332.19 342.78 C 333.82 344.41 336.95 345 340.14 345 C 341.46 345 342.79 344.9 344.03 344.73 C 346.14 344.44 350.08 343.67 352.75 341.71 C 356.97 338.66 366.5 337.51 371.46 337.9 C 374.42 338.13 378.01 339.68 380.89 340.93 C 383.09 341.89 384.83 342.64 386.19 342.83 C 388.06 343.09 391.13 342.78 394.37 342.44 L 394.64 342.42 C 395.49 342.32 396.32 342.25 397.15 342.18 C 397.49 342.15 397.82 342.12 398.27 342.09 C 399.66 341.99 400.74 340.83 400.74 339.44 L 400.74 333.42 C 400.74 332.66 400.42 331.94 399.86 331.44 Z M 370.04 308.15 C 383.22 308.15 394.28 318.06 395.91 330.97 C 395.46 331.01 394.98 331.06 394.47 331.1 L 394.18 331.13 C 394.15 329.68 392.96 328.52 391.51 328.52 L 390.39 328.52 C 386.92 318.32 376.88 311.29 365.52 311.29 C 361.31 311.29 357.19 312.25 353.48 314.08 C 353.51 314.06 353.53 314.04 353.56 314.01 C 358.19 310.23 364.04 308.15 370.04 308.15 Z M 386.23 333.82 L 386.23 331.66 L 391.04 331.66 L 391.04 333.82 Z M 343.61 341.61 C 339.43 342.18 336.14 341.67 334.78 340.83 C 335.6 340.24 337.47 339.43 338.78 338.85 C 339.92 338.36 341.07 337.83 342.18 337.27 C 344 338.66 346.25 339.69 348.74 340.31 C 347.3 340.89 345.52 341.35 343.61 341.61 Z M 397.59 338.98 C 397.35 339 397.1 339.02 396.86 339.04 C 396.04 339.11 395.18 339.19 394.31 339.28 L 394.05 339.31 C 391.27 339.6 388.12 339.92 386.63 339.72 C 385.69 339.58 383.97 338.83 382.14 338.04 C 379.04 336.7 375.19 335.03 371.71 334.76 C 366.91 334.39 358.62 335.3 353.28 337.8 C 350.19 337.66 347.32 336.83 345.1 335.46 C 345.09 335.03 345.08 334.6 345.08 334.44 C 345.08 327.92 348.13 321.82 353.45 317.67 C 357.07 315.55 361.24 314.44 365.52 314.44 C 375.15 314.44 383.71 320.13 387.04 328.52 L 385.76 328.52 C 384.48 328.52 383.41 329.42 383.15 330.63 C 382.93 330.54 382.73 330.47 382.5 330.38 C 379.3 329.15 374.92 327.46 369.85 327.76 C 362.44 328.2 358.8 328.64 355.93 329.46 L 356.79 332.49 C 359.42 331.74 362.88 331.33 370.03 330.9 C 374.42 330.66 378.44 332.19 381.36 333.32 C 381.98 333.56 382.55 333.77 383.08 333.96 L 383.08 334.28 C 383.08 335.76 384.29 336.96 385.76 336.96 L 391.51 336.96 C 392.98 336.96 394.18 335.76 394.19 334.29 L 394.75 334.24 C 395.68 334.16 396.54 334.07 397.26 334 L 397.59 333.97 Z" fill="#bf0816" stroke="none" pointer-events="all"/>
        <g transform="translate(-0.5 -0.5)">
            <switch>
                <foreignObject pointer-events="none" width="100%" height="100%" requiredFeatures="http://www.w3.org/TR/SVG11/feature#Extensibility" style="overflow: visible; text-align: left;">
                    <div xmlns="http://www.w3.org/1999/xhtml" style="display: flex; align-items: unsafe flex-start; justify-content: unsafe center; width: 1px; height: 1px; padding-top: 352px; margin-left: 366px;">
                        <div data-drawio-colors="color: #232F3E; " style="box-sizing: border-box; font-size: 0px; text-align: center;">
                            <div style="display: inline-block; font-size: 12px; font-family: Helvetica; color: rgb(35, 47, 62); line-height: 1.2; pointer-events: all; white-space: nowrap;">
                                project-developer
                            </div>
                        </div>
                    </div>
                </foreignObject>
                <text x="366" y="364" fill="#232F3E" font-family="Helvetica" font-size="12px" text-anchor="middle">
                    project-devel...
                </text>
            </switch>
        </g>
        <path d="M 268 324.24 L 324.89 324.68" fill="none" stroke="rgb(0, 0, 0)" stroke-miterlimit="10" pointer-events="stroke"/>
        <path d="M 330.14 324.72 L 323.12 328.17 L 324.89 324.68 L 323.17 321.17 Z" fill="rgb(0, 0, 0)" stroke="rgb(0, 0, 0)" stroke-miterlimit="10" pointer-events="all"/>
        <rect x="206" y="285" width="62" height="78" fill="none" stroke="none" pointer-events="all"/>
        <path d="M 238.76 311.91 L 227.77 311.91 L 227.77 308.39 L 235.24 308.39 L 235.24 297.84 L 238.76 297.84 Z M 237 294.99 C 244.51 294.99 250.63 301.1 250.63 308.61 C 250.63 316.12 244.51 322.24 237 322.24 C 229.49 322.24 223.38 316.12 223.38 308.61 C 223.38 301.1 229.49 294.99 237 294.99 Z M 237 325.76 C 246.46 325.76 254.15 318.07 254.15 308.61 C 254.15 299.16 246.46 291.46 237 291.46 C 227.54 291.46 219.85 299.16 219.85 308.61 C 219.85 318.07 227.54 325.76 237 325.76 Z M 255.09 346.72 C 255.6 347.33 255.86 348.12 255.86 349.08 C 255.86 350.46 255.36 351.55 254.38 352.37 C 253.4 353.19 252.07 353.6 250.41 353.6 C 248.75 353.6 247.32 353.31 246.1 352.72 L 246.1 351 C 247.61 351.5 249.03 351.75 250.36 351.75 C 251.38 351.75 252.18 351.53 252.76 351.08 C 253.35 350.64 253.64 350.03 253.64 349.27 C 253.64 348.74 253.47 348.3 253.13 347.95 C 252.79 347.59 252.22 347.26 251.42 346.95 L 249.33 346.15 C 248.15 345.7 247.3 345.17 246.76 344.53 C 246.23 343.9 245.97 343.1 245.97 342.14 C 245.97 341.34 246.17 340.62 246.57 340 C 246.97 339.37 247.55 338.88 248.31 338.52 C 249.06 338.17 249.95 337.98 250.97 337.98 C 252.26 337.98 253.59 338.24 254.95 338.76 L 254.95 340.51 C 253.5 340.06 252.22 339.84 251.12 339.84 C 250.18 339.84 249.46 340.03 248.95 340.41 C 248.44 340.79 248.19 341.33 248.19 342.03 C 248.19 342.61 248.36 343.06 248.7 343.4 C 249.05 343.74 249.69 344.08 250.62 344.42 L 252.58 345.16 C 253.74 345.59 254.58 346.11 255.09 346.72 Z M 232.67 338.31 L 244.39 338.31 L 244.39 340.12 L 239.63 340.12 L 239.63 353.24 L 237.44 353.24 L 237.44 340.12 L 232.67 340.12 Z M 230.45 346.72 C 230.96 347.33 231.21 348.12 231.21 349.08 C 231.21 350.46 230.72 351.55 229.74 352.37 C 228.75 353.19 227.43 353.6 225.76 353.6 C 224.11 353.6 222.67 353.31 221.45 352.72 L 221.45 351 C 222.96 351.5 224.38 351.75 225.72 351.75 C 226.74 351.75 227.54 351.53 228.12 351.08 C 228.7 350.64 228.99 350.03 228.99 349.27 C 228.99 348.74 228.82 348.3 228.49 347.95 C 228.15 347.59 227.58 347.26 226.77 346.95 L 224.68 346.15 C 223.51 345.7 222.65 345.17 222.12 344.53 C 221.59 343.9 221.32 343.1 221.32 342.14 C 221.32 341.34 221.52 340.62 221.92 340 C 222.33 339.37 222.91 338.88 223.66 338.52 C 224.41 338.17 225.3 337.98 226.32 337.98 C 227.61 337.98 228.94 338.24 230.31 338.76 L 230.31 340.51 C 228.86 340.06 227.58 339.84 226.47 339.84 C 225.54 339.84 224.82 340.03 224.31 340.41 C 223.8 340.79 223.54 341.33 223.54 342.03 C 223.54 342.61 223.71 343.06 224.06 343.4 C 224.4 343.74 225.04 344.08 225.98 344.42 L 227.94 345.16 C 229.1 345.59 229.93 346.11 230.45 346.72 Z M 264.47 357.75 C 264.47 358.53 263.84 359.17 263.05 359.17 L 210.95 359.17 C 210.16 359.17 209.53 358.53 209.53 357.75 L 209.53 290.25 C 209.53 289.47 210.16 288.83 210.95 288.83 L 263.05 288.83 C 263.84 288.83 264.47 289.47 264.47 290.25 Z M 263.05 285.31 L 210.95 285.31 C 208.22 285.31 206 287.53 206 290.25 L 206 357.75 C 206 360.47 208.22 362.69 210.95 362.69 L 263.05 362.69 C 265.78 362.69 268 360.47 268 357.75 L 268 290.25 C 268 287.53 265.78 285.31 263.05 285.31 Z" fill="#bf0816" stroke="none" pointer-events="all"/>
    </g>
    <switch>
        <g requiredFeatures="http://www.w3.org/TR/SVG11/feature#Extensibility"/>
        <a transform="translate(0,-5)" xlink:href="https://www.diagrams.net/doc/faq/svg-export-text-problems" target="_blank">
            <text text-anchor="middle" font-size="10px" x="50%" y="100%">
                Text is not SVG - cannot display
            </text>
        </a>
    </switch>
</svg>
